<svg version="1.2" xmlns="http://www.w3.org/2000/svg" viewBox="0 0 576 512" width="576" height="512">
	<title>cart-shopping-solid-svg</title>
	<style>
		.s0 { fill: #ffa01e } 
	</style>
	<path id="Layer" class="s0" d="m96 0c11.5 0 21.4 8.2 23.6 19.5l1.5 12.5h420.7c20.3 0 36.5 20.3 30.8 40.7l-54 192c-3.9 13.8-16.5 23.3-30.8 23.3h-317.1l9.2 48h308.1c13.3 0 24 10.7 24 24 0 13.3-10.7 24-24 24h-328.9c-10.6 0-20.5-8.2-22.7-19.5l-60.3-316.5h-52.1c-13.2 0-24-10.8-24-24 0-13.3 10.8-24 24-24zm32 464c0-26.5 21.5-48 48-48 26.5 0 48 21.5 48 48 0 26.5-21.5 48-48 48-26.5 0-48-21.5-48-48zm384 0c0 26.5-21.5 48-48 48-26.5 0-48-21.5-48-48 0-26.5 21.5-48 48-48 26.5 0 48 21.5 48 48z"/>
</svg>