<svg version="1.2" xmlns="http://www.w3.org/2000/svg" viewBox="0 0 512 512" width="512" height="512">
	<title>circle-plus-solid-svg</title>
	<style>
		.s0 { fill: #ffa01e } 
	</style>
	<path id="Layer" fill-rule="evenodd" class="s0" d="m0 256c0-141.4 114.6-256 256-256 141.4 0 256 114.6 256 256 0 141.4-114.6 256-256 256-141.4 0-256-114.6-256-256zm256 112c13.3 0 24-10.7 24-24v-64h64c13.3 0 24-10.7 24-24 0-13.3-10.7-24-24-24h-64v-64c0-13.3-10.7-24-24-24-13.3 0-24 10.7-24 24v64h-64c-13.3 0-24 10.7-24 24 0 13.3 10.7 24 24 24h64v64c0 13.3 10.7 24 24 24z"/>
</svg>