<svg version="1.2" xmlns="http://www.w3.org/2000/svg" viewBox="0 0 448 512" width="448" height="512">
	<title>bag-shopping-solid-svg</title>
	<style>
		.s0 { fill: #ffa01e } 
	</style>
	<path id="Layer" fill-rule="evenodd" class="s0" d="m112 112c0-61.9 50.1-112 112-112 61.9 0 112 50.1 112 112v48h64c26.5 0 48 21.5 48 48v208c0 53-43 96-96 96h-256c-53 0-96-43-96-96v-208c0-26.5 21.5-48 48-48h64zm48 48h128v-48c0-35.3-28.7-64-64-64-35.3 0-64 28.7-64 64zm0 72c0-13.3-10.7-24-24-24-13.3 0-24 10.7-24 24 0 13.3 10.7 24 24 24 13.3 0 24-10.7 24-24zm152-24c-13.3 0-24 10.7-24 24 0 13.3 10.7 24 24 24 13.3 0 24-10.7 24-24 0-13.3-10.7-24-24-24z"/>
</svg>